<svg width="22" height="22" viewBox="0 0 22 22" fill="none" xmlns="http://www.w3.org/2000/svg">
<g id="Icon/Bell">
<g id="Vector">
<path fill-rule="evenodd" clip-rule="evenodd" d="M11.0384 3.43758C8.04626 3.42134 5.51304 5.97285 5.51721 8.93663L5.51721 8.93759L5.51721 9.62509C5.51721 12.7984 4.85186 14.7094 4.21338 15.8126H17.7867C17.1482 14.7094 16.4828 12.7984 16.4828 9.62509V9.01494C16.4828 5.96862 14.0512 3.46077 11.0384 3.43758ZM4.14221 8.93808C4.13724 5.21595 7.28655 2.04168 11.0468 2.0626L11.0482 2.06261C14.8413 2.09135 17.8578 5.23804 17.8578 9.01494V9.62509C17.8578 12.6043 18.4813 14.268 18.977 15.1244L18.9774 15.1251C19.0979 15.3338 19.1614 15.5704 19.1617 15.8114C19.1619 16.0523 19.0988 16.2891 18.9787 16.498C18.8586 16.7069 18.6857 16.8805 18.4773 17.0016C18.269 17.1226 18.0325 17.1867 17.7915 17.1876L17.7891 17.1876H4.21096L4.20854 17.1876C3.96759 17.1867 3.73109 17.1226 3.52273 17.0016C3.31438 16.8805 3.14149 16.7069 3.02138 16.498C2.90127 16.2891 2.83817 16.0523 2.83838 15.8114C2.83859 15.5704 2.90212 15.3338 3.0226 15.1251L3.02301 15.1244C3.51878 14.268 4.14221 12.6043 4.14221 9.62509V8.93808Z" fill="#52545B"/>
<path fill-rule="evenodd" clip-rule="evenodd" d="M8.25002 15.8126C8.62972 15.8126 8.93752 16.1204 8.93752 16.5001V17.1876C8.93752 17.7346 9.15482 18.2592 9.54161 18.646C9.92841 19.0328 10.453 19.2501 11 19.2501C11.547 19.2501 12.0716 19.0328 12.4584 18.646C12.8452 18.2592 13.0625 17.7346 13.0625 17.1876V16.5001C13.0625 16.1204 13.3703 15.8126 13.75 15.8126C14.1297 15.8126 14.4375 16.1204 14.4375 16.5001V17.1876C14.4375 18.0993 14.0754 18.9736 13.4307 19.6183C12.786 20.2629 11.9117 20.6251 11 20.6251C10.0883 20.6251 9.214 20.2629 8.56934 19.6183C7.92468 18.9736 7.56252 18.0993 7.56252 17.1876V16.5001C7.56252 16.1204 7.87032 15.8126 8.25002 15.8126Z" fill="#52545B"/>
</g>
</g>
</svg>
